<?xml version="1.0" encoding="UTF-8"?>
<svg version="1.1" xmlns="http://www.w3.org/2000/svg" width="512" height="512">
<path d="M0 0 C1.01790619 0.00215515 2.03581238 0.0043103 3.08456421 0.00653076 C17.69363523 0.05620146 32.02575853 0.30709809 46.375 3.3125 C47.34985352 3.51117676 48.32470703 3.70985352 49.32910156 3.91455078 C97.7109774 14.03517194 141.69928269 35.9516877 177.375 70.3125 C178.3640332 71.26068604 178.3640332 71.26068604 179.37304688 72.22802734 C188.86130305 81.37247479 197.6012044 90.66984009 205.375 101.3125 C206.23306152 102.46355017 207.09113451 103.61459177 207.94921875 104.765625 C213.98736829 112.95680614 219.34595521 121.47054105 224.375 130.3125 C224.73948242 130.94430176 225.10396484 131.57610352 225.47949219 132.22705078 C247.08534998 169.97532572 256.85198095 212.74189997 256.6875 255.9375 C256.68534485 256.95540619 256.6831897 257.97331238 256.68096924 259.02206421 C256.63129854 273.63113523 256.38040191 287.96325853 253.375 302.3125 C253.07698486 303.77478027 253.07698486 303.77478027 252.77294922 305.26660156 C242.65232806 353.6484774 220.7358123 397.63678269 186.375 433.3125 C185.74287598 433.97185547 185.11075195 434.63121094 184.45947266 435.31054688 C175.31502521 444.79880305 166.01765991 453.5387044 155.375 461.3125 C154.22394983 462.17056152 153.07290823 463.02863451 151.921875 463.88671875 C143.73224019 469.92427396 135.22961724 475.30707302 126.375 480.3125 C125.66778809 480.7146875 124.96057617 481.116875 124.23193359 481.53125 C101.09654164 494.5566741 75.92537591 503.30551461 49.9375 508.625 C49.21860596 508.77235596 48.49971191 508.91971191 47.7590332 509.0715332 C33.08339502 511.86090125 18.55831162 512.66142619 3.64770508 512.62817383 C0.70811513 512.6250221 -2.2304558 512.64854926 -5.16992188 512.67382812 C-18.54306192 512.71848737 -31.43916711 511.51301542 -44.625 509.3125 C-46.33055054 509.03031616 -46.33055054 509.03031616 -48.07055664 508.74243164 C-91.33802759 500.97044532 -132.38793216 480.98345309 -165.625 452.3125 C-166.37007813 451.67828125 -167.11515625 451.0440625 -167.8828125 450.390625 C-181.38779833 438.57948485 -194.05918743 425.82889772 -204.625 411.3125 C-205.48149066 410.16255169 -206.33826433 409.01281411 -207.1953125 407.86328125 C-213.23534209 399.67315742 -218.61867614 391.16870382 -223.625 382.3125 C-224.0271875 381.60528809 -224.429375 380.89807617 -224.84375 380.16943359 C-237.8691741 357.03404164 -246.61801461 331.86287591 -251.9375 305.875 C-252.08485596 305.15610596 -252.23221191 304.43721191 -252.3840332 303.6965332 C-255.35789088 288.05024391 -255.99800362 272.57681954 -255.9375 256.6875 C-255.93534485 255.66959381 -255.9331897 254.65168762 -255.93096924 253.60293579 C-255.88129854 238.99386477 -255.63040191 224.66174147 -252.625 210.3125 C-252.42632324 209.33764648 -252.22764648 208.36279297 -252.02294922 207.35839844 C-241.90232806 158.9765226 -219.9858123 114.98821731 -185.625 79.3125 C-184.99287598 78.65314453 -184.36075195 77.99378906 -183.70947266 77.31445312 C-174.56502521 67.82619695 -165.26765991 59.0862956 -154.625 51.3125 C-153.47394983 50.45443848 -152.32290823 49.59636549 -151.171875 48.73828125 C-142.98224019 42.70072604 -134.47961724 37.31792698 -125.625 32.3125 C-124.91778809 31.9103125 -124.21057617 31.508125 -123.48193359 31.09375 C-100.34654164 18.0683259 -75.17537591 9.31948539 -49.1875 4 C-48.46860596 3.85264404 -47.74971191 3.70528809 -47.0090332 3.5534668 C-31.36274391 0.57960912 -15.88931954 -0.06050362 0 0 Z " fill="#9A6198" transform="translate(255.625,-0.3125)"/>
<path d="M0 0 C1.52287125 -0.00043808 1.52287125 -0.00043808 3.07650757 -0.00088501 C6.42039644 0.00050438 9.76406038 0.01604739 13.10791016 0.03173828 C15.43103921 0.03546979 17.75416984 0.03831611 20.07730103 0.04031372 C26.18304817 0.04793926 32.28869973 0.06757858 38.39440918 0.08972168 C44.62832344 0.1102033 50.86225318 0.1193204 57.09619141 0.12939453 C69.32149375 0.15082541 81.54672525 0.18494842 93.77197266 0.22705078 C93.60815409 0.83320284 93.44433552 1.4393549 93.27555275 2.0638752 C92.6543982 4.73210292 92.72257761 7.10092622 92.8046875 9.83984375 C92.94785288 15.52184331 93.03478273 21.20131192 93.07587242 26.88479424 C93.10463788 30.30946815 93.15932356 33.72945004 93.27587891 37.15234375 C93.9187111 56.84767016 91.175133 68.95786605 78.4019165 84.18267822 C75.64468666 87.64095995 73.97081846 90.86353673 73.33447266 95.22705078 C73.90114615 99.11281189 75.29936388 101.20497339 77.77197266 104.22705078 C81.61244827 107.02558705 86.12266898 106.51502236 90.66796875 106.50170898 C91.56599716 106.50681992 92.46402557 106.51193085 93.38926697 106.51719666 C96.35804916 106.53109706 99.32659929 106.5301354 102.29541016 106.52783203 C104.3604033 106.53171899 106.42539565 106.53605367 108.49038696 106.54081726 C112.81962678 106.54828065 117.14878505 106.54798752 121.47802734 106.54272461 C127.02193152 106.53693288 132.5655013 106.55385336 138.1093502 106.57706928 C142.3747655 106.59181264 146.64010039 106.59267744 150.90553665 106.58955956 C152.94924201 106.59007256 154.9929519 106.59530644 157.03663254 106.60537148 C159.8970374 106.61772871 162.75679278 106.61094811 165.6171875 106.59936523 C166.87983177 106.61083084 166.87983177 106.61083084 168.16798401 106.62252808 C173.96194767 106.57075544 178.26099305 105.57063174 182.64697266 101.47705078 C184.2811551 98.2086859 184.14569008 95.83965259 183.77197266 92.22705078 C182.18067022 88.22063004 179.99398396 85.20636036 177.24609375 81.94262695 C164.90939221 66.84421708 163.71338392 53.28007148 164.33673096 34.61401367 C164.43848816 31.10993687 164.45806943 27.6054236 164.48291016 24.10009766 C164.53009404 17.98300883 164.64956685 11.87026912 164.82925415 5.75556946 C164.89333475 3.10003618 164.89333475 3.10003618 163.77197266 0.22705078 C177.32404776 0.13428886 190.87604708 0.063254 204.42837524 0.01980209 C210.72157013 -0.00105475 217.01454748 -0.02933832 223.30761719 -0.07470703 C229.38304782 -0.11823163 235.45826946 -0.14210064 241.53384399 -0.15245819 C243.84944955 -0.1598376 246.16504393 -0.17424787 248.4805603 -0.19586945 C251.72898906 -0.22499046 254.97655895 -0.22890146 258.22509766 -0.22705078 C259.17816299 -0.24143188 260.13122833 -0.25581299 261.11317444 -0.27062988 C267.78767822 -0.22959971 273.36667305 0.99041915 278.33209229 5.70989609 C282.04953643 9.97326314 282.89738555 13.16067178 282.89222717 18.67497253 C282.89428917 20.37240349 282.89428917 20.37240349 282.89639282 22.10412598 C282.89279755 23.34633911 282.88920227 24.58855225 282.88549805 25.8684082 C282.88564407 27.17582474 282.8857901 28.48324127 282.88594055 29.83027649 C282.8862278 33.41677502 282.88034273 37.0032402 282.87336659 40.58973098 C282.86712105 44.33735088 282.8665283 48.08497152 282.86534119 51.83259583 C282.86223142 58.92986315 282.8540228 66.02711509 282.8439917 73.12437564 C282.83281957 81.20409589 282.82731733 89.28381687 282.82229626 97.36354291 C282.8118399 113.98472121 282.7942473 130.60588403 282.77197266 147.22705078 C280.99005272 147.24251198 280.99005272 147.24251198 279.1721344 147.25828552 C268.00283854 147.35584011 256.83360064 147.45855668 245.66439915 147.56639004 C239.92154976 147.62166691 234.17869532 147.67509439 228.43579102 147.72436523 C222.89852746 147.77193868 217.36132799 147.82427867 211.82414055 147.87999153 C209.70654829 147.900447 207.58893844 147.91915467 205.47131538 147.9361248 C202.51621227 147.96009841 199.56123152 147.99016221 196.60620117 148.02172852 C195.27911385 148.03036171 195.27911385 148.03036171 193.92521667 148.03916931 C190.03497387 147.70508231 190.03497387 147.70508231 186.77197266 149.22705078 C186.77197266 151.20705078 186.77197266 153.18705078 186.77197266 155.22705078 C218.45197266 155.55705078 250.13197266 155.88705078 282.77197266 156.22705078 C282.77197266 163.48705078 282.77197266 170.74705078 282.77197266 178.22705078 C248.45197266 178.22705078 214.13197266 178.22705078 178.77197266 178.22705078 C177.78197266 175.91705078 176.79197266 173.60705078 175.77197266 171.22705078 C172.20809994 166.84857859 168.04712169 164.13615233 162.77197266 162.22705078 C161.55509766 162.18580078 160.33822266 162.14455078 159.08447266 162.10205078 C155.77197266 161.22705078 155.77197266 161.22705078 154.40087891 159.12548828 C153.55609664 157.34118181 152.73877412 155.54364566 151.94775391 153.73486328 C149.11426293 147.69133769 143.35264081 143.90042836 137.43994141 141.13720703 C129.93629631 138.57739838 122.01619338 139.76727725 114.95166016 143.05126953 C108.7214408 146.4120151 106.79199946 148.97423847 104.02197266 155.41455078 C101.45849333 160.91730745 101.45849333 160.91730745 98.45166016 162.27392578 C96.73975213 162.53568542 95.01951817 162.74755323 93.29541016 162.91064453 C89.0079998 163.44823004 85.8950792 165.29177022 82.77197266 168.22705078 C82.16267333 169.93295695 81.56228112 171.64205942 80.96875 173.35351562 C79.27356368 176.22953603 78.00781622 177.88929637 74.71576691 178.78900909 C67.80846733 179.70103316 60.82033205 179.37149469 53.87353516 179.20361328 C51.854276 179.18890378 49.83497877 179.17870607 47.81567383 179.1730957 C40.3421906 179.12074255 32.86952453 178.98112815 25.39697266 178.85205078 C8.69072266 178.64580078 -8.01552734 178.43955078 -25.22802734 178.22705078 C-25.22802734 139.61705078 -25.22802734 101.00705078 -25.22802734 61.22705078 C25.70947266 60.78955078 25.70947266 60.78955078 41.81860352 60.65893555 C46.56605381 60.61570268 46.56605381 60.61570268 51.31349182 60.57115173 C53.43509879 60.55187647 55.55672417 60.5345675 57.67835999 60.51878357 C60.88402215 60.49455891 64.08957135 60.46417882 67.29516602 60.43237305 C68.7231283 60.42371767 68.7231283 60.42371767 70.17993832 60.41488743 C74.3026381 60.78717608 74.3026381 60.78717608 77.77197266 59.22705078 C77.77197266 57.24705078 77.77197266 55.26705078 77.77197266 53.22705078 C43.78197266 52.89705078 9.79197266 52.56705078 -25.22802734 52.22705078 C-25.22802734 13.22705078 -25.22802734 13.22705078 -21.22802734 6.22705078 C-14.95472939 0.11883962 -8.28952684 -0.06268372 0 0 Z " fill="#FDFCFD" transform="translate(127.22802734375,136.77294921875)"/>
<path d="M0 0 C101.64 0 203.28 0 308 0 C308 21.97129187 308 21.97129187 302.3671875 27.64453125 C298.36047718 30.78067362 296.37924205 32.12371536 291.33533096 32.13422108 C290.34576472 32.13867892 289.35619847 32.14313676 288.33664536 32.14772969 C287.24153445 32.14754533 286.14642354 32.14736097 285.01812744 32.14717102 C283.86092312 32.15084771 282.70371879 32.1545244 281.51144767 32.1583125 C278.2894967 32.16745069 275.06757567 32.17205152 271.84561396 32.17470181 C268.37446454 32.17860077 264.90332993 32.1881794 261.43218994 32.19691467 C253.04434625 32.21669092 244.65650134 32.22674688 236.26864016 32.23564246 C232.32048821 32.24002357 228.3723376 32.24539085 224.42418671 32.25063133 C211.30266218 32.26764497 198.18113851 32.2821396 185.05960464 32.28938007 C181.65334319 32.29129003 178.24708174 32.29321035 174.84082031 32.29516602 C173.57087572 32.29589163 173.57087572 32.29589163 172.27527568 32.2966319 C158.55744534 32.30493391 144.83970216 32.33027309 131.12190989 32.36274669 C117.04412135 32.3958013 102.96637712 32.41382739 88.88854957 32.41702431 C80.98194206 32.41919093 73.07546164 32.42796155 65.16889191 32.45348549 C58.435806 32.47517072 51.70287803 32.48325372 44.96976116 32.47351871 C41.53402838 32.46896757 38.09862162 32.47090683 34.66293335 32.49028015 C30.93828039 32.50788638 27.21445962 32.50094742 23.48980713 32.48774719 C21.86052509 32.50420106 21.86052509 32.50420106 20.19832826 32.52098733 C13.05332648 32.45967667 9.48478408 31.45995189 4.35546875 26.3671875 C-3.08490975 16.86141965 0 17.67554137 0 0 Z " fill="#FDFDFD" transform="translate(102,325)"/>
<path d="M0 0 C3.15720902 0.29908274 4.60435132 0.56298557 6.77001953 2.95507812 C7.30224121 3.80521484 7.83446289 4.65535156 8.3828125 5.53125 C8.99382812 6.48902344 9.60484375 7.44679688 10.234375 8.43359375 C10.85828125 9.44550781 11.4821875 10.45742187 12.125 11.5 C13.35668753 13.44796934 14.58846079 15.39588448 15.8203125 17.34375 C16.46274902 18.40980469 17.10518555 19.47585937 17.76708984 20.57421875 C19.3203295 23.07091101 21.03608258 25.28029068 22.93994141 27.51953125 C34.3728938 41.65413723 31.88857556 57.79434889 30.89453125 74.98583984 C29.75750711 96.75287979 33.55724462 108.41567852 47.56686401 124.62939453 C49 127 49 127 48 132 C17.64 132 -12.72 132 -44 132 C-45 127 -45 127 -44.10717773 125.01464844 C-43.63739502 124.3859082 -43.1676123 123.75716797 -42.68359375 123.109375 C-42.16603516 122.39910156 -41.64847656 121.68882812 -41.11523438 120.95703125 C-40.28475586 119.86455078 -40.28475586 119.86455078 -39.4375 118.75 C-38.37245295 117.30821049 -37.30865299 115.86549894 -36.24609375 114.421875 C-35.52957642 113.47199707 -35.52957642 113.47199707 -34.79858398 112.50292969 C-34.20505127 111.67696289 -33.61151855 110.85099609 -33 110 C-32.4973764 109.40881378 -31.99475281 108.81762756 -31.47689819 108.20852661 C-26.16602829 101.4061183 -26.27786186 95.48031245 -26.546875 87.0859375 C-26.56106482 85.74471672 -26.57109293 84.40344621 -26.57720947 83.06216431 C-26.61008235 77.41564496 -26.71470779 71.77134308 -26.85205078 66.12646484 C-27.52394754 36.71666864 -27.52394754 36.71666864 -16 24 C-14.72348638 22.12573643 -13.48140697 20.22726384 -12.28515625 18.30078125 C-11.74439453 17.46482422 -11.20363281 16.62886719 -10.64648438 15.76757812 C-9.56288333 14.08806332 -8.47956328 12.4083672 -7.39648438 10.72851562 C-6.86474609 9.90673828 -6.33300781 9.08496094 -5.78515625 8.23828125 C-5.31988525 7.51680908 -4.85461426 6.79533691 -4.37524414 6.05200195 C-2.98486143 3.97741173 -1.51614864 1.98403027 0 0 Z " fill="#FDFCFC" transform="translate(254,103)"/>
<path d="M0 0 C19.14 0 38.28 0 58 0 C59.32 4.90875 60.64 9.8175 62 14.875 C62.41765625 16.42300293 62.8353125 17.97100586 63.265625 19.56591797 C63.75289062 21.38567139 63.75289062 21.38567139 64.25 23.2421875 C64.75273437 25.11173096 64.75273437 25.11173096 65.265625 27.01904297 C66 30 66 30 66 32 C67.24873901 31.98428955 67.24873901 31.98428955 68.52270508 31.96826172 C71.61449156 31.93415558 74.70618208 31.90908924 77.7980957 31.89013672 C79.79319618 31.87514505 81.78820946 31.84973269 83.78320312 31.82421875 C85.66362305 31.81455078 85.66362305 31.81455078 87.58203125 31.8046875 C88.73936768 31.79421387 89.8967041 31.78374023 91.08911133 31.77294922 C94 32 94 32 97 34 C96.125 40.875 96.125 40.875 95 42 C93.29644497 42.10275316 91.58861633 42.13520762 89.88197327 42.14044189 C88.77282059 42.14615204 87.66366791 42.15186218 86.52090454 42.15774536 C84.67956436 42.15942215 84.67956436 42.15942215 82.80102539 42.16113281 C81.51662064 42.16609772 80.23221588 42.17106262 78.90888977 42.17617798 C75.37587006 42.18932463 71.84286936 42.1957512 68.309829 42.20018864 C66.104875 42.20311542 63.89992626 42.20721944 61.6949749 42.21169281 C54.80292886 42.22537304 47.91089476 42.2350374 41.01883608 42.2388947 C33.05027007 42.24337842 25.08187533 42.26093854 17.11336142 42.2898953 C10.96218958 42.31147582 4.81106605 42.32159701 -1.34014326 42.32293582 C-5.01791015 42.32398637 -8.69551614 42.32994688 -12.37324333 42.34775543 C-16.47281246 42.36721991 -20.57202078 42.36296173 -24.67163086 42.35644531 C-25.89716675 42.3656601 -27.12270264 42.37487488 -28.38537598 42.3843689 C-29.49734848 42.37879974 -30.60932098 42.37323059 -31.75498962 42.36749268 C-32.72526061 42.36895924 -33.6955316 42.3704258 -34.69520473 42.3719368 C-35.45578717 42.24919765 -36.21636961 42.12645851 -37 42 C-39.14915785 38.77626323 -39.38286803 37.73296326 -39 34 C-36.20822431 31.20822431 -34.36816428 31.68786516 -30.4609375 31.5859375 C-29.15898437 31.54726563 -27.85703125 31.50859375 -26.515625 31.46875 C-25.13542138 31.43729237 -23.75521296 31.40604509 -22.375 31.375 C-20.98695459 31.33682066 -19.59893289 31.29776895 -18.2109375 31.2578125 C-14.80742815 31.16327057 -11.40392835 31.07772103 -8 31 C-7.86424561 30.45174561 -7.72849121 29.90349121 -7.58862305 29.33862305 C-6.95623283 26.78792005 -6.32187177 24.23771086 -5.6875 21.6875 C-5.36749023 20.39489258 -5.36749023 20.39489258 -5.04101562 19.07617188 C-3.44983016 12.68768099 -1.73330058 6.35543546 0 0 Z " fill="#FCFCFD" transform="translate(227,367)"/>
<path d="M0 0 C5.44654809 3.89504136 8.69001947 7.523686 10 14.1875 C10.19335938 15.48107422 10.19335938 15.48107422 10.390625 16.80078125 C10.54214696 18.8591514 10.54214696 18.8591514 11.75 19.875 C13.47965856 19.86910679 15.20924721 19.81996975 16.9375 19.75 C22.63904433 19.69823501 26.19514985 20.74595821 30.625 24.4375 C31.75 25.875 31.75 25.875 31.75 27.875 C4.69 27.875 -22.37 27.875 -50.25 27.875 C-48.00876166 23.39252332 -46.98095598 21.45198533 -42.25 19.875 C-39.40957588 19.84545621 -36.58491152 19.94090599 -33.74609375 20.03515625 C-31.07433522 20.13958783 -31.07433522 20.13958783 -29.25 17.875 C-28.71816629 15.87667749 -28.71816629 15.87667749 -28.375 13.625 C-27.16215696 7.81268295 -25.00652273 4.22898627 -20.25 0.5625 C-13.87655119 -3.02256495 -6.44536598 -3.80862535 0 0 Z " fill="#FCFCFC" transform="translate(265.25,287.125)"/>
<path d="M0 0 C4.21500435 1.62115552 6.65064827 3.15192388 9 7 C9.78623141 11.33737663 10.013156 15.96162661 8.015625 19.98046875 C5.7448478 22.81894025 3.33394631 24.64907008 0 26 C-3.98246868 26.41272857 -7.52782977 25.9564609 -10.91796875 23.75390625 C-14.31806847 20.38611151 -15.48884118 17.25171705 -15.875 12.5 C-15.62506973 8.08050133 -14.62908326 5.87965506 -11.4375 2.8125 C-7.54445493 -0.05063897 -4.87016127 -0.90188172 0 0 Z " fill="#CD5181" transform="translate(259,132)"/>
<path d="M0 0 C2.4375 0.1875 2.4375 0.1875 3.4375 1.1875 C3.55086626 3.83036274 3.60167761 6.44611456 3.60546875 9.08984375 C3.60879715 9.88274307 3.61212555 10.6756424 3.61555481 11.49256897 C3.62062726 13.17301858 3.62296304 14.85347829 3.62280273 16.53393555 C3.62498786 19.11068259 3.64313609 21.68700076 3.66210938 24.26367188 C3.66504345 25.8932277 3.66702815 27.52278556 3.66796875 29.15234375 C3.67515427 29.92634018 3.68233978 30.70033661 3.68974304 31.49778748 C3.66632253 36.95867747 3.66632253 36.95867747 1.4375 39.1875 C-3.11805556 38.63194444 -3.11805556 38.63194444 -4.5625 37.1875 C-4.67582093 34.61730515 -4.72667485 32.07498523 -4.73046875 29.50390625 C-4.73546135 28.34785133 -4.73546135 28.34785133 -4.74055481 27.16844177 C-4.7456271 25.53507079 -4.74796304 23.9016894 -4.74780273 22.26831055 C-4.7499878 19.76398701 -4.76813595 17.26010479 -4.78710938 14.75585938 C-4.79004347 13.17187651 -4.79202816 11.58789155 -4.79296875 10.00390625 C-4.80015427 9.2517836 -4.80733978 8.49966095 -4.81474304 7.7247467 C-4.78220601 0.34991751 -4.78220601 0.34991751 0 0 Z " fill="#C04D8A" transform="translate(268.5625,185.8125)"/>
<path d="M0 0 C2.5625 0.1875 2.5625 0.1875 4.5625 2.1875 C4.76215373 4.81690196 4.8423411 7.33870163 4.828125 9.96875 C4.83003845 10.73803833 4.8319519 11.50732666 4.83392334 12.29992676 C4.83528508 13.9273308 4.83158939 15.5547457 4.82324219 17.18212891 C4.81254221 19.67765631 4.82313751 22.17246382 4.8359375 24.66796875 C4.8346159 26.24739743 4.8320535 27.82682566 4.828125 29.40625 C4.83217346 30.1552356 4.83622192 30.90422119 4.84039307 31.67590332 C4.79242243 36.95757757 4.79242243 36.95757757 2.5625 39.1875 C-1.99305556 38.63194444 -1.99305556 38.63194444 -3.4375 37.1875 C-3.53845564 34.53293807 -3.57720998 31.90494824 -3.5703125 29.25 C-3.57126923 28.454729 -3.57222595 27.65945801 -3.57321167 26.84008789 C-3.57389343 25.1554354 -3.57203943 23.47078029 -3.56787109 21.78613281 C-3.56252275 19.19850803 -3.56781619 16.61105684 -3.57421875 14.0234375 C-3.57355797 12.39062461 -3.5722768 10.75781184 -3.5703125 9.125 C-3.57233673 8.34584229 -3.57436096 7.56668457 -3.57644653 6.76391602 C-3.54792769 0.27291751 -3.54792769 0.27291751 0 0 Z " fill="#C2558F" transform="translate(243.4375,185.8125)"/>
<path d="M0 0 C4.55555556 0.55555556 4.55555556 0.55555556 6 2 C6.10023409 4.26774891 6.13081341 6.53863163 6.1328125 8.80859375 C6.13376923 9.49051285 6.13472595 10.17243195 6.13571167 10.87501526 C6.13639339 12.32007947 6.13453969 13.76514672 6.13037109 15.21020508 C6.12503084 17.42471193 6.13031205 19.63901519 6.13671875 21.85351562 C6.13605781 23.25520878 6.13477631 24.65690181 6.1328125 26.05859375 C6.13168457 27.34048584 6.13055664 28.62237793 6.12939453 29.94311523 C6 33 6 33 5 35 C2.625 35.125 2.625 35.125 0 35 C-2.86866884 32.13133116 -2.25853358 30.10344387 -2.265625 26.09375 C-2.26753845 25.41324585 -2.2694519 24.7327417 -2.27142334 24.03161621 C-2.27278463 22.59252554 -2.26909205 21.15342256 -2.26074219 19.71435547 C-2.25004128 17.50850913 -2.26063872 15.30347719 -2.2734375 13.09765625 C-2.27211589 11.70051903 -2.26955348 10.30338232 -2.265625 8.90625 C-2.26336914 7.63072266 -2.26111328 6.35519531 -2.25878906 5.04101562 C-2 2 -2 2 0 0 Z " fill="#C7588E" transform="translate(254,171)"/>
<path d="M0 0 C3 0.125 3 0.125 4 1.125 C4.12663091 3.94916382 4.18520548 6.73794793 4.1875 9.5625 C4.19974609 10.35205078 4.21199219 11.14160156 4.22460938 11.95507812 C4.22987279 14.01307435 4.12206285 16.07062009 4 18.125 C3.34 18.785 2.68 19.445 2 20.125 C-2.55555556 19.56944444 -2.55555556 19.56944444 -4 18.125 C-4.09986975 15.28164952 -4.13877881 12.46802837 -4.125 9.625 C-4.12886719 8.82707031 -4.13273438 8.02914063 -4.13671875 7.20703125 C-4.1247745 0.1718656 -4.1247745 0.1718656 0 0 Z " fill="#B1468F" transform="translate(220,249.875)"/>
<path d="M0 0 C1.875 0.75 1.875 0.75 2.875 1.75 C3.00163091 4.57416382 3.06020548 7.36294793 3.0625 10.1875 C3.07474609 10.97705078 3.08699219 11.76660156 3.09960938 12.58007812 C3.10487279 14.63807435 2.99706285 16.69562009 2.875 18.75 C2.215 19.41 1.555 20.07 0.875 20.75 C-2.05953261 20.38318342 -2.98937246 19.88562754 -5.125 17.75 C-5.35055081 15.22207337 -5.44938591 12.83944424 -5.4375 10.3125 C-5.45361328 9.63123047 -5.46972656 8.94996094 -5.48632812 8.24804688 C-5.48924346 5.27148616 -5.46938667 3.24378257 -3.73828125 0.76171875 C-2.125 -0.25 -2.125 -0.25 0 0 Z " fill="#B45196" transform="translate(231.125,254.25)"/>
<path d="M0 0 C2.93453261 0.36681658 3.86437246 0.86437246 6 3 C6.22555081 5.52792663 6.32438591 7.91055576 6.3125 10.4375 C6.32861328 11.11876953 6.34472656 11.80003906 6.36132812 12.50195312 C6.36424223 15.4772581 6.34612865 17.50469478 4.61328125 19.984375 C3 21 3 21 0.875 20.8125 C-1 20 -1 20 -2 18 C-2.12413998 15.32088601 -2.18515807 12.67916901 -2.1875 10 C-2.19974609 9.26265625 -2.21199219 8.5253125 -2.22460938 7.765625 C-2.22987395 5.84229942 -2.12203447 3.91945737 -2 2 C-1.34 1.34 -0.68 0.68 0 0 Z " fill="#B45096" transform="translate(280,254)"/>
<path d="M0 0 C1.1653125 0.00515625 2.330625 0.0103125 3.53125 0.015625 C4.6965625 0.01046875 5.861875 0.0053125 7.0625 0 C10.03125 0.265625 10.03125 0.265625 12.03125 2.265625 C11.46306818 7.83380682 11.46306818 7.83380682 10.03125 9.265625 C7.88817104 9.39100241 5.74046114 9.44136864 3.59375 9.453125 C2.41941406 9.46730469 1.24507813 9.48148437 0.03515625 9.49609375 C-2.96875 9.265625 -2.96875 9.265625 -4.96875 7.265625 C-5.21875 4.765625 -5.21875 4.765625 -4.96875 2.265625 C-2.96875 0.265625 -2.96875 0.265625 0 0 Z " fill="#8560A4" transform="translate(366.96875,331.734375)"/>
<path d="M0 0 C1.99954746 -0.04254356 4.00041636 -0.04080783 6 0 C8.10131385 2.10131385 7.18514741 6.54146322 7.1875 9.4375 C7.19974609 10.22705078 7.21199219 11.01660156 7.22460938 11.83007812 C7.22987279 13.88807435 7.12206285 15.94562009 7 18 C6.34 18.66 5.68 19.32 5 20 C1.46428571 19.46428571 1.46428571 19.46428571 0 18 C-0.08631874 16.65732587 -0.10706473 15.31025678 -0.09765625 13.96484375 C-0.09443359 13.15595703 -0.09121094 12.34707031 -0.08789062 11.51367188 C-0.07951172 10.66353516 -0.07113281 9.81339844 -0.0625 8.9375 C-0.05798828 8.08349609 -0.05347656 7.22949219 -0.04882812 6.34960938 C-0.03700373 4.23304337 -0.01906769 2.11651315 0 0 Z " fill="#B1458E" transform="translate(289,250)"/>
<path d="M0 0 C1.423125 0.37125 1.423125 0.37125 2.875 0.75 C4.26931504 3.53863007 4.13160094 5.67078868 3.875 8.75 C0.875 10.75 0.875 10.75 -2.25 10.4375 C-5.125 9.75 -5.125 9.75 -6.125 8.75 C-6.375 5.3125 -6.375 5.3125 -6.125 1.75 C-3.125 -0.25 -3.125 -0.25 0 0 Z " fill="#FBF4F7" transform="translate(257.125,139.25)"/>
</svg>
